<svg fill="none" height="20" viewBox="0 0 20 20" width="20" xmlns="http://www.w3.org/2000/svg">
    <g clip-path="url(#clip0_54729_35360)" id="Google__G__Logo 1">
        <g id="Group">
            <path
                d="M10 8.18188V12.0546H15.3818C15.1455 13.3001 14.4363 14.3547 13.3727 15.0638L16.6182 17.582C18.5091 15.8366 19.6 13.2729 19.6 10.2275C19.6 9.51837 19.5364 8.83648 19.4182 8.18199L10 8.18188Z"
                fill="#4285F4" id="Vector" />
            <path
                d="M4.39521 11.9033L3.66323 12.4636L1.07227 14.4818C2.71772 17.7454 6.09022 20 9.9993 20C12.6993 20 14.9629 19.1091 16.6175 17.5819L13.372 15.0636C12.4811 15.6636 11.3447 16.0273 9.9993 16.0273C7.3993 16.0273 5.19026 14.2728 4.39929 11.9091L4.39521 11.9033Z"
                fill="#34A853" id="Vector_2" />
            <path
                d="M1.07266 5.51831C0.39087 6.86372 0 8.38193 0 10.0001C0 11.6183 0.39087 13.1365 1.07266 14.4819C1.07266 14.4909 4.4 11.9 4.4 11.9C4.2 11.3 4.08179 10.6637 4.08179 9.99999C4.08179 9.33626 4.2 8.69993 4.4 8.09993L1.07266 5.51831Z"
                fill="#FBBC05" id="Vector_3" />
            <path
                d="M9.99951 3.98184C11.4723 3.98184 12.7813 4.49092 13.8268 5.47276L16.6904 2.60914C14.954 0.990977 12.6996 0 9.99951 0C6.09043 0 2.71772 2.24546 1.07227 5.51822L4.39951 8.10005C5.19038 5.73638 7.39951 3.98184 9.99951 3.98184Z"
                fill="#EA4335" id="Vector_4" />
        </g>
    </g>
    <defs>
        <clipPath id="clip0_54729_35360">
            <rect fill="white" height="20" width="19.6" />
        </clipPath>
    </defs>
</svg>
